<svg width="375" height="812" viewBox="0 0 375 812" fill="none" xmlns="http://www.w3.org/2000/svg">
<g clip-path="url(#clip0_61385_181)">
<rect width="375" height="812" fill="#202024"/>
<path d="M169.055 433.5V435.547H170.633V436.664H169.055V441.906C169.055 442.245 169.125 442.5 169.266 442.672C169.406 442.839 169.646 442.922 169.984 442.922C170.151 442.922 170.38 442.891 170.672 442.828V444C170.292 444.104 169.922 444.156 169.562 444.156C168.917 444.156 168.43 443.961 168.102 443.57C167.773 443.18 167.609 442.625 167.609 441.906V436.664H166.07V435.547H167.609V433.5H169.055ZM173.898 444H172.453V435.547H173.898V444ZM172.336 433.305C172.336 433.07 172.406 432.872 172.547 432.711C172.693 432.549 172.906 432.469 173.188 432.469C173.469 432.469 173.682 432.549 173.828 432.711C173.974 432.872 174.047 433.07 174.047 433.305C174.047 433.539 173.974 433.734 173.828 433.891C173.682 434.047 173.469 434.125 173.188 434.125C172.906 434.125 172.693 434.047 172.547 433.891C172.406 433.734 172.336 433.539 172.336 433.305ZM181.438 444C181.354 443.833 181.286 443.536 181.234 443.109C180.562 443.807 179.76 444.156 178.828 444.156C177.995 444.156 177.31 443.922 176.773 443.453C176.242 442.979 175.977 442.38 175.977 441.656C175.977 440.776 176.31 440.094 176.977 439.609C177.648 439.12 178.591 438.875 179.805 438.875H181.211V438.211C181.211 437.706 181.06 437.305 180.758 437.008C180.456 436.706 180.01 436.555 179.422 436.555C178.906 436.555 178.474 436.685 178.125 436.945C177.776 437.206 177.602 437.521 177.602 437.891H176.148C176.148 437.469 176.297 437.062 176.594 436.672C176.896 436.276 177.302 435.964 177.812 435.734C178.328 435.505 178.893 435.391 179.508 435.391C180.482 435.391 181.245 435.635 181.797 436.125C182.349 436.609 182.635 437.279 182.656 438.133V442.023C182.656 442.799 182.755 443.417 182.953 443.875V444H181.438ZM179.039 442.898C179.492 442.898 179.922 442.781 180.328 442.547C180.734 442.312 181.029 442.008 181.211 441.633V439.898H180.078C178.307 439.898 177.422 440.417 177.422 441.453C177.422 441.906 177.573 442.26 177.875 442.516C178.177 442.771 178.565 442.898 179.039 442.898ZM184.578 439.703C184.578 438.385 184.883 437.339 185.492 436.562C186.102 435.781 186.909 435.391 187.914 435.391C188.945 435.391 189.75 435.755 190.328 436.484L190.398 435.547H191.719V443.797C191.719 444.891 191.393 445.753 190.742 446.383C190.096 447.013 189.227 447.328 188.133 447.328C187.523 447.328 186.927 447.198 186.344 446.938C185.76 446.677 185.315 446.32 185.008 445.867L185.758 445C186.378 445.766 187.135 446.148 188.031 446.148C188.734 446.148 189.281 445.951 189.672 445.555C190.068 445.159 190.266 444.602 190.266 443.883V443.156C189.688 443.823 188.898 444.156 187.898 444.156C186.909 444.156 186.107 443.758 185.492 442.961C184.883 442.164 184.578 441.078 184.578 439.703ZM186.031 439.867C186.031 440.82 186.227 441.57 186.617 442.117C187.008 442.659 187.555 442.93 188.258 442.93C189.169 442.93 189.839 442.516 190.266 441.688V437.828C189.823 437.021 189.159 436.617 188.273 436.617C187.57 436.617 187.021 436.891 186.625 437.438C186.229 437.984 186.031 438.794 186.031 439.867ZM193.523 439.695C193.523 438.867 193.685 438.122 194.008 437.461C194.336 436.799 194.789 436.289 195.367 435.93C195.951 435.57 196.615 435.391 197.359 435.391C198.51 435.391 199.44 435.789 200.148 436.586C200.862 437.383 201.219 438.443 201.219 439.766V439.867C201.219 440.69 201.06 441.43 200.742 442.086C200.43 442.737 199.979 443.245 199.391 443.609C198.807 443.974 198.135 444.156 197.375 444.156C196.229 444.156 195.299 443.758 194.586 442.961C193.878 442.164 193.523 441.109 193.523 439.797V439.695ZM194.977 439.867C194.977 440.805 195.193 441.557 195.625 442.125C196.062 442.693 196.646 442.977 197.375 442.977C198.109 442.977 198.693 442.69 199.125 442.117C199.557 441.539 199.773 440.732 199.773 439.695C199.773 438.768 199.552 438.018 199.109 437.445C198.672 436.867 198.089 436.578 197.359 436.578C196.646 436.578 196.07 436.862 195.633 437.43C195.195 437.997 194.977 438.81 194.977 439.867ZM209.125 445.18H201.969V444H209.125V445.18ZM211.82 444H210.375V432H211.82V444ZM219.359 443.164C218.797 443.826 217.971 444.156 216.883 444.156C215.982 444.156 215.294 443.896 214.82 443.375C214.352 442.849 214.115 442.073 214.109 441.047V435.547H215.555V441.008C215.555 442.289 216.076 442.93 217.117 442.93C218.221 442.93 218.956 442.518 219.32 441.695V435.547H220.766V444H219.391L219.359 443.164ZM226.359 442.977C226.875 442.977 227.326 442.82 227.711 442.508C228.096 442.195 228.31 441.805 228.352 441.336H229.719C229.693 441.82 229.526 442.281 229.219 442.719C228.911 443.156 228.5 443.505 227.984 443.766C227.474 444.026 226.932 444.156 226.359 444.156C225.208 444.156 224.292 443.773 223.609 443.008C222.932 442.237 222.594 441.185 222.594 439.852V439.609C222.594 438.786 222.745 438.055 223.047 437.414C223.349 436.773 223.781 436.276 224.344 435.922C224.911 435.568 225.581 435.391 226.352 435.391C227.299 435.391 228.086 435.674 228.711 436.242C229.341 436.81 229.677 437.547 229.719 438.453H228.352C228.31 437.906 228.102 437.458 227.727 437.109C227.357 436.755 226.898 436.578 226.352 436.578C225.617 436.578 225.047 436.844 224.641 437.375C224.24 437.901 224.039 438.664 224.039 439.664V439.938C224.039 440.911 224.24 441.661 224.641 442.188C225.042 442.714 225.615 442.977 226.359 442.977ZM232.789 436.57C233.43 435.784 234.263 435.391 235.289 435.391C237.076 435.391 237.977 436.398 237.992 438.414V444H236.547V438.406C236.542 437.797 236.401 437.346 236.125 437.055C235.854 436.763 235.43 436.617 234.852 436.617C234.383 436.617 233.971 436.742 233.617 436.992C233.263 437.242 232.987 437.57 232.789 437.977V444H231.344V432H232.789V436.57Z" fill="#C4C4CC"/>
<path d="M145.999 431.167C141.582 431.167 138 434.763 138 439.199C138 442.747 140.292 445.757 143.472 446.82C143.872 446.894 144.018 446.646 144.018 446.433C144.018 446.242 144.011 445.737 144.007 445.067C141.782 445.552 141.312 443.99 141.312 443.99C140.949 443.062 140.424 442.815 140.424 442.815C139.697 442.317 140.478 442.327 140.478 442.327C141.281 442.384 141.703 443.155 141.703 443.155C142.417 444.382 143.576 444.028 144.032 443.822C144.104 443.303 144.311 442.949 144.54 442.748C142.764 442.545 140.896 441.856 140.896 438.779C140.896 437.902 141.208 437.185 141.72 436.623C141.637 436.42 141.363 435.603 141.798 434.498C141.798 434.498 142.47 434.282 143.998 435.321C144.636 435.143 145.32 435.054 146.001 435.051C146.68 435.055 147.365 435.143 148.004 435.322C149.531 434.283 150.202 434.499 150.202 434.499C150.638 435.605 150.364 436.421 150.282 436.624C150.795 437.186 151.104 437.903 151.104 438.78C151.104 441.865 149.234 442.544 147.452 442.743C147.739 442.991 147.995 443.481 147.995 444.23C147.995 445.304 147.985 446.17 147.985 446.433C147.985 446.648 148.129 446.898 148.535 446.819C151.71 445.755 154 442.746 154 439.199C154 434.763 150.418 431.167 145.999 431.167Z" fill="#C4C4CC"/>
<rect width="375" height="812" fill="#202024"/>
<circle cx="278" cy="99" r="300" transform="rotate(-180 278 99)" fill="url(#paint0_radial_61385_181)"/>
<circle cx="98" cy="99" r="300" transform="rotate(-180 98 99)" fill="url(#paint1_radial_61385_181)"/>
<mask id="mask0_61385_181" style="mask-type:alpha" maskUnits="userSpaceOnUse" x="0" y="0" width="375" height="812">
<rect y="1.52588e-05" width="375" height="812" fill="#202024"/>
</mask>
<g mask="url(#mask0_61385_181)">
<path d="M375 168.101V-310.699L187.478 -418.486L-0.0446777 -310.699V168.101L187.478 275.894L375 168.101Z" fill="url(#paint2_linear_61385_181)"/>
<g style="mix-blend-mode:luminosity" opacity="0.4">
<path d="M1.83663 61.3931V168.797L95.1275 222.505L188.418 168.797V61.3931L95.1275 7.68577L1.83663 61.3931Z" fill="url(#paint3_linear_61385_181)"/>
<path d="M1.83663 -46.0166V61.3877L95.1275 115.095L188.418 61.3877V-46.0166L95.1275 -99.7239L1.83663 -46.0166Z" fill="url(#paint4_linear_61385_181)"/>
<path d="M281.709 -99.6961V7.70821L188.418 61.4155L95.1274 7.70821V-99.6961L188.418 -153.403L281.709 -99.6961Z" fill="url(#paint5_linear_61385_181)"/>
<path d="M188.418 168.797V61.3927L281.709 7.68539L375 61.3927V168.797L281.709 222.504L188.418 168.797Z" fill="url(#paint6_linear_61385_181)"/>
<path d="M375 -46.0166V61.3877L281.709 115.095L188.418 61.3877V-46.0166L281.709 -99.7239L375 -46.0166Z" fill="url(#paint7_linear_61385_181)"/>
<path d="M281.709 222.527V115.123L188.418 61.4155L95.1274 115.123L95.1274 222.527L188.418 276.235L281.709 222.527Z" fill="url(#paint8_linear_61385_181)"/>
</g>
</g>
</g>
<defs>
<radialGradient id="paint0_radial_61385_181" cx="0" cy="0" r="1" gradientUnits="userSpaceOnUse" gradientTransform="translate(278 99) rotate(90) scale(300)">
<stop stop-color="#C2B89D"/>
<stop offset="1" stop-color="#121214" stop-opacity="0"/>
</radialGradient>
<radialGradient id="paint1_radial_61385_181" cx="0" cy="0" r="1" gradientUnits="userSpaceOnUse" gradientTransform="translate(98 99) rotate(90) scale(300)">
<stop stop-color="#BC8291"/>
<stop offset="1" stop-color="#121214" stop-opacity="0"/>
</radialGradient>
<linearGradient id="paint2_linear_61385_181" x1="-67.9497" y1="58.9385" x2="436.115" y2="232.357" gradientUnits="userSpaceOnUse">
<stop stop-color="#E00870"/>
<stop offset="1" stop-color="#00114D"/>
</linearGradient>
<linearGradient id="paint3_linear_61385_181" x1="95.1275" y1="217.565" x2="2.23833" y2="59.047" gradientUnits="userSpaceOnUse">
<stop stop-color="#0B0B0B"/>
<stop offset="1" stop-color="#FF008E" stop-opacity="0"/>
</linearGradient>
<linearGradient id="paint4_linear_61385_181" x1="95.1275" y1="110.155" x2="2.23831" y2="-48.3627" gradientUnits="userSpaceOnUse">
<stop stop-color="#0B0B0B"/>
<stop offset="1" stop-color="#FF008E" stop-opacity="0"/>
</linearGradient>
<linearGradient id="paint5_linear_61385_181" x1="95.1275" y1="-105.732" x2="281.421" y2="6.68569" gradientUnits="userSpaceOnUse">
<stop stop-color="white" stop-opacity="0"/>
<stop offset="1" stop-color="#FFCD1E"/>
</linearGradient>
<linearGradient id="paint6_linear_61385_181" x1="375" y1="174.833" x2="188.706" y2="62.4152" gradientUnits="userSpaceOnUse">
<stop stop-color="white" stop-opacity="0"/>
<stop offset="1" stop-color="#FFCD1E"/>
</linearGradient>
<linearGradient id="paint7_linear_61385_181" x1="281.709" y1="110.155" x2="374.598" y2="-48.3627" gradientUnits="userSpaceOnUse">
<stop stop-color="#0B0B0B"/>
<stop offset="1" stop-color="#FF008E" stop-opacity="0"/>
</linearGradient>
<linearGradient id="paint8_linear_61385_181" x1="188.418" y1="66.3552" x2="281.307" y2="224.873" gradientUnits="userSpaceOnUse">
<stop stop-color="#0B0B0B"/>
<stop offset="1" stop-color="#FF008E" stop-opacity="0"/>
</linearGradient>
<clipPath id="clip0_61385_181">
<rect width="375" height="812" fill="white"/>
</clipPath>
</defs>
</svg>
